<svg xmlns="http://www.w3.org/2000/svg" xmlns:xlink="http://www.w3.org/1999/xlink" xml:space="preserve" version="1.1" style="shape-rendering:geometricPrecision;text-rendering:geometricPrecision;image-rendering:optimizeQuality;" viewBox="0 0 228 186.25" x="0px" y="0px" fill-rule="evenodd" clip-rule="evenodd"><defs><style type="text/css">.fil0 {fill:black}</style></defs><g><path class="fil0" d="M104 51c41,-3 73,5 104,34 -16,-42 -44,-61 -82,-82 4,6 4,9 3,13 -15,-7 -38,-14 -58,-16 5,7 9,9 7,15 -27,0 -54,0 -78,-14 11,50 33,82 59,101 -2,5 -6,6 -13,9 25,11 42,13 59,12 -1,4 -3,7 -9,11 28,1 79,-7 107,-24 10,12 16,24 24,39 1,-9 2,-15 1,-24 -29,-44 -72,-77 -124,-74z"/></g><text x="0" y="164" fill="#000000" font-size="5px" font-weight="bold" font-family="'Helvetica Neue', Helvetica, Arial-Unicode, Arial, Sans-serif">Created by yasminvisible</text><text x="0" y="169" fill="#000000" font-size="5px" font-weight="bold" font-family="'Helvetica Neue', Helvetica, Arial-Unicode, Arial, Sans-serif">from the Noun Project</text></svg>